<svg xmlns="http://www.w3.org/2000/svg" xmlns:xlink="http://www.w3.org/1999/xlink" width="32" zoomAndPan="magnify" viewBox="0 0 24 28.499999" height="38" preserveAspectRatio="xMidYMid meet" version="1.0"><defs><filter x="0%" y="0%" width="100%" height="100%" id="22037c2dea"><feColorMatrix values="0 0 0 0 1 0 0 0 0 1 0 0 0 0 1 0 0 0 1 0" color-interpolation-filters="sRGB"/></filter><g/><clipPath id="d653a9d59f"><path d="M 0.207031 3.925781 L 23.648438 3.925781 L 23.648438 27.367188 L 0.207031 27.367188 Z M 0.207031 3.925781 " clip-rule="nonzero"/></clipPath><clipPath id="440f440850"><path d="M 11.925781 3.925781 C 5.453125 3.925781 0.207031 9.171875 0.207031 15.644531 C 0.207031 22.117188 5.453125 27.367188 11.925781 27.367188 C 18.398438 27.367188 23.648438 22.117188 23.648438 15.644531 C 23.648438 9.171875 18.398438 3.925781 11.925781 3.925781 Z M 11.925781 3.925781 " clip-rule="nonzero"/></clipPath><mask id="87f56209e0"><g filter="url(#22037c2dea)"><rect x="-2.4" width="28.8" fill="#000000" y="-2.85" height="34.199999" fill-opacity="0.63"/></g></mask><clipPath id="bcd83ca790"><path d="M 0.339844 0.644531 L 11.660156 0.644531 L 11.660156 2.292969 L 0.339844 2.292969 Z M 0.339844 0.644531 " clip-rule="nonzero"/></clipPath><clipPath id="29fd9e28d3"><rect x="0" width="12" y="0" height="3"/></clipPath></defs><g clip-path="url(#d653a9d59f)"><g clip-path="url(#440f440850)"><path fill="#ffffff" d="M 0.207031 3.925781 L 23.648438 3.925781 L 23.648438 27.367188 L 0.207031 27.367188 Z M 0.207031 3.925781 " fill-opacity="1" fill-rule="nonzero"/></g></g><g fill="#33443c" fill-opacity="1"><g transform="translate(6.444541, 19.945118)"><g><path d="M 9.890625 -9.921875 L 3.5 -9.921875 L 3.5 -6.765625 L 9.21875 -6.765625 L 9.21875 -5 L 3.5 -5 L 3.5 -1.765625 L 10.09375 -1.765625 L 10.09375 0 L 1.53125 0 L 1.53125 -11.6875 L 9.890625 -11.6875 Z M 9.890625 -9.921875 "/></g></g></g><g mask="url(#87f56209e0)"><g transform="matrix(1, 0, 0, 1, 6, 22)"><g clip-path="url(#29fd9e28d3)"><g clip-path="url(#bcd83ca790)"><path stroke-linecap="butt" transform="matrix(0.737069, 0, 0, 0.737069, 1.254611, 0.696819)" fill="none" stroke-linejoin="miter" d="M -0.000956084 0.999601 L 12.675945 0.999601 " stroke="#ff6154" stroke-width="2" stroke-opacity="1" stroke-miterlimit="4"/></g></g></g></g></svg>