<svg xmlns="http://www.w3.org/2000/svg" xmlns:xlink="http://www.w3.org/1999/xlink" width="378" zoomAndPan="magnify" viewBox="0 0 283.5 43.499998" height="58" preserveAspectRatio="xMidYMid meet" version="1.0"><defs><filter x="0%" y="0%" width="100%" height="100%" id="70c3ca5096"><feColorMatrix values="0 0 0 0 1 0 0 0 0 1 0 0 0 0 1 0 0 0 1 0" color-interpolation-filters="sRGB"/></filter><g/><mask id="c57356921d"><g filter="url(#70c3ca5096)"><rect x="-28.35" width="340.2" fill="#000000" y="-4.35" height="52.199998" fill-opacity="0.63"/></g></mask><clipPath id="355c67e9ad"><path d="M 0.679688 0.675781 L 106 0.675781 L 106 3.761719 L 0.679688 3.761719 Z M 0.679688 0.675781 " clip-rule="nonzero"/></clipPath><clipPath id="fbcbe05fb2"><rect x="0" width="107" y="0" height="4"/></clipPath></defs><g fill="#33443c" fill-opacity="1"><g transform="translate(12.152326, 31.646251)"><g><path d="M 15.21875 -15.265625 L 5.390625 -15.265625 L 5.390625 -10.40625 L 14.1875 -10.40625 L 14.1875 -7.6875 L 5.390625 -7.6875 L 5.390625 -2.71875 L 15.53125 -2.71875 L 15.53125 0 L 2.359375 0 L 2.359375 -18 L 15.21875 -18 Z M 15.21875 -15.265625 "/></g></g></g><g fill="#33443c" fill-opacity="1"><g transform="translate(28.264027, 31.646251)"><g><path d="M 21.390625 0 L 18.578125 0 L 18.5625 -13.4375 L 12.875 -1.875 L 10.890625 -1.875 L 5.21875 -13.4375 L 5.21875 0 L 2.359375 0 L 2.359375 -18 L 5.96875 -18 L 11.90625 -6.046875 L 17.8125 -18 L 21.390625 -18 Z M 21.390625 0 "/></g></g></g><g fill="#33443c" fill-opacity="1"><g transform="translate(51.28818, 31.646251)"><g><path d="M 21.390625 0 L 18.578125 0 L 18.5625 -13.4375 L 12.875 -1.875 L 10.890625 -1.875 L 5.21875 -13.4375 L 5.21875 0 L 2.359375 0 L 2.359375 -18 L 5.96875 -18 L 11.90625 -6.046875 L 17.8125 -18 L 21.390625 -18 Z M 21.390625 0 "/></g></g></g><g fill="#33443c" fill-opacity="1"><g transform="translate(74.312331, 31.646251)"><g><path d="M 13.984375 -4.0625 L 4.90625 -4.0625 L 3.1875 0 L 0.03125 0 L 7.96875 -18 L 11.078125 -18 L 18.9375 0 L 15.703125 0 Z M 12.828125 -6.765625 L 9.4375 -14.75 L 6.046875 -6.765625 Z M 12.828125 -6.765625 "/></g></g></g><g fill="#33443c" fill-opacity="1"><g transform="translate(92.531173, 31.646251)"><g/></g></g><g fill="#33443c" fill-opacity="1"><g transform="translate(98.415522, 31.646251)"><g><path d="M 9.734375 -5.984375 L 9.734375 0 L 6.734375 0 L 6.734375 -5.890625 L 0.03125 -18 L 3.078125 -18 L 8.21875 -9.234375 L 13.265625 -18 L 16.34375 -18 Z M 9.734375 -5.984375 "/></g></g></g><g fill="#33443c" fill-opacity="1"><g transform="translate(114.038973, 31.646251)"><g><path d="M 13.984375 -4.0625 L 4.90625 -4.0625 L 3.1875 0 L 0.03125 0 L 7.96875 -18 L 11.078125 -18 L 18.9375 0 L 15.703125 0 Z M 12.828125 -6.765625 L 9.4375 -14.75 L 6.046875 -6.765625 Z M 12.828125 -6.765625 "/></g></g></g><g fill="#33443c" fill-opacity="1"><g transform="translate(132.257809, 31.646251)"><g><path d="M 17.96875 0 L 14.984375 0 L 5.390625 -12.90625 L 5.390625 0 L 2.359375 0 L 2.359375 -18 L 5.34375 -18 L 14.984375 -5.0625 L 14.984375 -18 L 17.96875 -18 Z M 17.96875 0 "/></g></g></g><g fill="#33443c" fill-opacity="1"><g transform="translate(151.864278, 31.646251)"><g><path d="M 17.96875 0 L 14.984375 0 L 5.390625 -12.90625 L 5.390625 0 L 2.359375 0 L 2.359375 -18 L 5.34375 -18 L 14.984375 -5.0625 L 14.984375 -18 L 17.96875 -18 Z M 17.96875 0 "/></g></g></g><g fill="#33443c" fill-opacity="1"><g transform="translate(171.470748, 31.646251)"><g/></g></g><g fill="#33443c" fill-opacity="1"><g transform="translate(177.355092, 31.646251)"><g><path d="M 16.015625 -15.8125 L 5.0625 -2.71875 L 16.140625 -2.71875 L 16.140625 0 L 0.953125 0 L 0.953125 -2.1875 L 11.921875 -15.265625 L 1.28125 -15.265625 L 1.28125 -18 L 16.015625 -18 Z M 16.015625 -15.8125 "/></g></g></g><g fill="#33443c" fill-opacity="1"><g transform="translate(193.723754, 31.646251)"><g><path d="M 17.96875 0 L 14.9375 0 L 14.9375 -7.453125 L 5.390625 -7.453125 L 5.390625 0 L 2.359375 0 L 2.359375 -18 L 5.390625 -18 L 5.390625 -10.171875 L 14.9375 -10.171875 L 14.9375 -18 L 17.96875 -18 Z M 17.96875 0 "/></g></g></g><g fill="#33443c" fill-opacity="1"><g transform="translate(213.304518, 31.646251)"><g><path d="M 13.984375 -4.0625 L 4.90625 -4.0625 L 3.1875 0 L 0.03125 0 L 7.96875 -18 L 11.078125 -18 L 18.9375 0 L 15.703125 0 Z M 12.828125 -6.765625 L 9.4375 -14.75 L 6.046875 -6.765625 Z M 12.828125 -6.765625 "/></g></g></g><g fill="#33443c" fill-opacity="1"><g transform="translate(231.523365, 31.646251)"><g><path d="M 17.96875 0 L 14.984375 0 L 5.390625 -12.90625 L 5.390625 0 L 2.359375 0 L 2.359375 -18 L 5.34375 -18 L 14.984375 -5.0625 L 14.984375 -18 L 17.96875 -18 Z M 17.96875 0 "/></g></g></g><g fill="#33443c" fill-opacity="1"><g transform="translate(251.129835, 31.646251)"><g><path d="M 14.671875 -8.84375 L 17.328125 -8.84375 L 17.328125 -2.203125 C 16.398438 -1.503906 15.304688 -0.941406 14.046875 -0.515625 C 12.785156 -0.0859375 11.546875 0.125 10.328125 0.125 C 7.671875 0.125 5.429688 -0.75 3.609375 -2.5 C 1.785156 -4.257812 0.875 -6.425781 0.875 -9 C 0.875 -11.570312 1.796875 -13.722656 3.640625 -15.453125 C 5.492188 -17.191406 7.785156 -18.0625 10.515625 -18.0625 C 11.785156 -18.0625 13.03125 -17.832031 14.25 -17.375 C 15.476562 -16.925781 16.535156 -16.316406 17.421875 -15.546875 L 15.703125 -13.3125 C 14.234375 -14.6875 12.503906 -15.375 10.515625 -15.375 C 8.679688 -15.375 7.128906 -14.753906 5.859375 -13.515625 C 4.585938 -12.285156 3.953125 -10.78125 3.953125 -9 C 3.953125 -7.195312 4.585938 -5.675781 5.859375 -4.4375 C 7.140625 -3.207031 8.695312 -2.59375 10.53125 -2.59375 C 11.925781 -2.59375 13.304688 -3.003906 14.671875 -3.828125 Z M 14.671875 -8.84375 "/></g></g></g><g mask="url(#c57356921d)"><g transform="matrix(1, 0, 0, 1, 88, 38)"><g clip-path="url(#fbcbe05fb2)"><g clip-path="url(#355c67e9ad)"><path stroke-linecap="butt" transform="matrix(0.741477, 0, 0, 0.741477, 2.233314, 0.714998)" fill="none" stroke-linejoin="miter" d="M 0.00143154 2.001708 L 137.670025 2.001708 " stroke="#ff6154" stroke-width="4" stroke-opacity="1" stroke-miterlimit="4"/></g></g></g></g></svg>